<?xml version="1.0" standalone="no"?>
<!DOCTYPE svg PUBLIC "-//W3C//DTD SVG 20010904//EN"
 "http://www.w3.org/TR/2001/REC-SVG-20010904/DTD/svg10.dtd">
<svg version="1.0" xmlns="http://www.w3.org/2000/svg"
 width="50.000000pt" height="50.000000pt" viewBox="0 0 50.000000 50.000000"
 preserveAspectRatio="xMidYMid meet">
<metadata>
Created by potrace 1.16, written by Peter Selinger 2001-2019
</metadata>
<g transform="translate(0.000000,50.000000) scale(0.100000,-0.100000)"
fill="#000000" stroke="none">
<path d="M317 443 c10 -26 35 -43 56 -37 20 6 23 -6 5 -24 -17 -17 -51 -16
-45 2 8 21 -27 48 -55 43 -23 -4 -23 -5 -1 -12 18 -6 20 -11 12 -38 -13 -47
-67 -93 -118 -101 -26 -4 -48 -2 -56 4 -9 8 -14 -2 -19 -44 -3 -30 -8 -61 -12
-69 -8 -22 24 -29 56 -12 37 19 79 19 100 0 15 -14 19 -13 41 3 13 11 30 17
36 15 15 -5 28 25 37 90 7 45 26 67 26 30 0 -12 5 -8 15 11 12 22 13 37 6 58
-6 15 -6 28 -2 28 5 0 11 9 14 19 3 13 0 18 -8 15 -7 -3 -20 4 -28 16 -14 20
-16 20 -19 4 -3 -16 -4 -17 -20 -1 -21 22 -29 22 -21 0z"/>
</g>
</svg>
